<svg version="1.2" xmlns="http://www.w3.org/2000/svg" viewBox="0 0 36 36" width="36" height="36">
	<title>cart</title>
	<style>
		.s0 { fill: #8e36b7 }
	</style>
	<path id="cart" class="s0" d="m11.4 28.1c1.9 0 3.4 1.5 3.4 3.4 0 1.9-1.5 3.5-3.4 3.5-1.9 0-3.5-1.6-3.5-3.5 0-1.9 1.6-3.4 3.5-3.4zm-10.4-27.6v3.4h3.5l6.2 13.1-2.4 4.2c-0.2 0.5-0.4 1.2-0.4 1.7 0 1.9 1.6 3.5 3.5 3.5h20.7v-3.5h-20c-0.2 0-0.4-0.2-0.4-0.3v-0.2l1.6-2.9h12.8c1.4 0 2.4-0.7 2.9-1.8l6.2-11.2c0.4-0.3 0.4-0.5 0.4-0.9 0-1-0.7-1.7-1.7-1.7h-25.6l-1.6-3.4zm27.7 27.6c-1.9 0-3.5 1.5-3.5 3.4 0 1.9 1.6 3.5 3.5 3.5 1.9 0 3.4-1.6 3.4-3.5 0-1.9-1.5-3.4-3.4-3.4zm0 0"/>
</svg>
